# MagicaVoxel @ Ephtracy

# group
o 

# material
mtllib npc.mtl
usemtl palette

# normals
vn -1 0 0
vn 1 0 0
vn 0 0 1
vn 0 0 -1
vn 0 -1 0
vn 0 1 0

# texcoords
vt 0.0136719 0.5
vt 0.146484 0.5
vt 0.173828 0.5
vt 0.419922 0.5
vt 0.482422 0.5

# verts
v -1.6 0 1.2
v -1.6 0 -2
v -1.6 0.7 1.2
v -1.6 0.7 -2
v -1.6 2.1 1.2
v -1.6 2.1 -2
v -1.6 3.7 1.2
v -1.6 3.7 -2
v -1.5 0.7 1.2
v -1.5 0.7 -2
v -1.5 0.8 1.2
v -1.5 0.8 -2
v -1.2 0.8 1.2
v -1.2 0.8 -2
v -1.2 2.1 1.2
v -1.2 2.1 -2
v -1.1 2.1 1.3
v -1.1 2.1 1.2
v -1.1 2.4 1.2
v -1.1 2.6 1.3
v -1.1 2.6 1.2
v -1.1 2.9 1.3
v -1.1 2.9 1.2
v -1 3.7 1.2
v -1 3.7 -2
v -1 4 1.2
v -1 4 -2
v -0.4 0.9 1.8
v -0.4 0.9 1.7
v -0.4 1 1.7
v -0.4 1 1.6
v -0.4 1.1 1.6
v -0.4 1.1 1.5
v -0.4 1.2 1.8
v -0.4 1.2 1.5
v -0.3 1.2 1.7
v -0.3 1.2 1.5
v -0.3 1.3 1.6
v -0.3 1.3 1.5
v -0.3 1.4 1.7
v -0.3 1.4 1.6
v -0.2 1.3 1.6
v -0.2 1.3 1.5
v -0.2 1.3 1.4
v -0.2 1.4 1.6
v -0.2 1.7 1.6
v -0.2 1.7 1.5
v -0.2 1.9 1.5
v -0.2 1.9 1.4
v -0.1 1.4 1.4
v -0.1 1.4 1.2
v -0.1 1.8 1.2
v -0.1 1.9 1.4
v -0.1 1.9 1.2
v -0.1 2.1 1.4
v -0.1 2.1 1.2
v 0.4 2.1 1.3
v 0.4 2.1 1.2
v 0.4 2.4 1.2
v 0.4 2.6 1.3
v 0.4 2.6 1.2
v 0.4 2.9 1.3
v 0.4 2.9 1.2
v 0.9 0 1.2
v 0.9 0 -2
v 0.9 0.2 1.2
v 0.9 0.2 -2
v -0.9 0 1.2
v -0.9 0 -2
v -0.9 0.2 1.2
v -0.9 0.2 -2
v -0.4 2.1 1.3
v -0.4 2.1 1.2
v -0.4 2.4 1.2
v -0.4 2.6 1.3
v -0.4 2.6 1.2
v -0.4 2.9 1.3
v -0.4 2.9 1.2
v 0.1 1.4 1.4
v 0.1 1.4 1.2
v 0.1 1.8 1.2
v 0.1 1.9 1.4
v 0.1 1.9 1.2
v 0.1 2.1 1.4
v 0.1 2.1 1.2
v 0.2 1.3 1.6
v 0.2 1.3 1.5
v 0.2 1.3 1.4
v 0.2 1.4 1.6
v 0.2 1.7 1.6
v 0.2 1.7 1.5
v 0.2 1.9 1.5
v 0.2 1.9 1.4
v 0.3 1.2 1.7
v 0.3 1.2 1.5
v 0.3 1.3 1.6
v 0.3 1.3 1.5
v 0.3 1.4 1.7
v 0.3 1.4 1.6
v 0.4 0.9 1.8
v 0.4 0.9 1.7
v 0.4 1 1.7
v 0.4 1 1.6
v 0.4 1.1 1.6
v 0.4 1.1 1.5
v 0.4 1.2 1.8
v 0.4 1.2 1.5
v 1 3.7 1.2
v 1 3.7 -2
v 1 4 1.2
v 1 4 -2
v 1.1 2.1 1.3
v 1.1 2.1 1.2
v 1.1 2.4 1.2
v 1.1 2.6 1.3
v 1.1 2.6 1.2
v 1.1 2.9 1.3
v 1.1 2.9 1.2
v 1.3 0.8 1.2
v 1.3 0.8 -2
v 1.3 2.1 1.2
v 1.3 2.1 -2
v 1.5 0.7 1.2
v 1.5 0.7 -2
v 1.5 0.8 1.2
v 1.5 0.8 -2
v 1.6 0 1.2
v 1.6 0 -2
v 1.6 0.7 1.2
v 1.6 0.7 -2
v 1.6 2.1 1.2
v 1.6 2.1 -2
v 1.6 3.7 1.2
v 1.6 3.7 -2
v -0.4 0.9 1.8
v -0.4 1.2 1.8
v 0.4 0.9 1.8
v 0.4 1.2 1.8
v -0.3 1.2 1.7
v -0.3 1.4 1.7
v 0.3 1.2 1.7
v 0.3 1.4 1.7
v -0.2 1.4 1.6
v -0.2 1.7 1.6
v 0.2 1.4 1.6
v 0.2 1.7 1.6
v -0.2 1.7 1.5
v -0.2 1.9 1.5
v 0.2 1.7 1.5
v 0.2 1.9 1.5
v -0.1 1.9 1.4
v -0.1 2.1 1.4
v 0.1 1.9 1.4
v 0.1 2.1 1.4
v -1.1 2.1 1.3
v -1.1 2.6 1.3
v -1.1 2.9 1.3
v -0.9 2.3 1.3
v -0.9 2.6 1.3
v -0.6 2.3 1.3
v -0.6 2.6 1.3
v -0.4 2.1 1.3
v -0.4 2.6 1.3
v -0.4 2.9 1.3
v 0.4 2.1 1.3
v 0.4 2.6 1.3
v 0.4 2.9 1.3
v 0.6 2.3 1.3
v 0.6 2.6 1.3
v 0.9 2.3 1.3
v 0.9 2.6 1.3
v 1.1 2.1 1.3
v 1.1 2.6 1.3
v 1.1 2.9 1.3
v -1.6 0 1.2
v -1.6 0.7 1.2
v -1.6 2.1 1.2
v -1.6 3.7 1.2
v -1.5 0.7 1.2
v -1.5 0.8 1.2
v -1.4 0.2 1.2
v -1.4 0.4 1.2
v -1.3 3 1.2
v -1.3 3.1 1.2
v -1.3 3.2 1.2
v -1.2 0.8 1.2
v -1.2 2.1 1.2
v -1.2 2.4 1.2
v -1.2 2.9 1.2
v -1.2 3 1.2
v -1.2 3.1 1.2
v -1.2 3.2 1.2
v -1.1 0.4 1.2
v -1.1 0.6 1.2
v -1.1 2 1.2
v -1.1 2.1 1.2
v -1.1 2.4 1.2
v -1.1 2.6 1.2
v -1.1 2.9 1.2
v -1.1 3 1.2
v -1.1 3.1 1.2
v -1 0.2 1.2
v -1 0.3 1.2
v -1 0.4 1.2
v -1 3.7 1.2
v -1 4 1.2
v -0.9 0 1.2
v -0.9 0.2 1.2
v -0.4 2 1.2
v -0.4 2.1 1.2
v -0.4 2.4 1.2
v -0.4 2.6 1.2
v -0.4 2.9 1.2
v -0.4 3 1.2
v -0.4 3.1 1.2
v -0.3 1.3 1.2
v -0.3 1.5 1.2
v -0.3 2.1 1.2
v -0.3 2.4 1.2
v -0.3 2.9 1.2
v -0.3 3 1.2
v -0.3 3.1 1.2
v -0.3 3.2 1.2
v -0.2 1.4 1.2
v -0.2 1.5 1.2
v -0.2 1.8 1.2
v -0.2 1.9 1.2
v -0.2 2.1 1.2
v -0.2 3 1.2
v -0.2 3.1 1.2
v -0.2 3.2 1.2
v -0.1 1.4 1.2
v -0.1 1.8 1.2
v -0.1 1.9 1.2
v -0.1 2.1 1.2
v 0.1 1.4 1.2
v 0.1 1.8 1.2
v 0.1 1.9 1.2
v 0.1 2.1 1.2
v 0.2 1.4 1.2
v 0.2 1.5 1.2
v 0.2 1.8 1.2
v 0.2 1.9 1.2
v 0.2 2.1 1.2
v 0.2 2.9 1.2
v 0.2 3.1 1.2
v 0.3 1.3 1.2
v 0.3 1.5 1.2
v 0.3 2.1 1.2
v 0.3 2.4 1.2
v 0.3 2.9 1.2
v 0.3 3.1 1.2
v 0.3 3.2 1.2
v 0.4 2 1.2
v 0.4 2.1 1.2
v 0.4 2.4 1.2
v 0.4 2.6 1.2
v 0.4 2.9 1.2
v 0.4 3.1 1.2
v 0.4 3.2 1.2
v 0.4 3.3 1.2
v 0.9 0 1.2
v 0.9 0.2 1.2
v 1 0.2 1.2
v 1 0.3 1.2
v 1 0.4 1.2
v 1 3.7 1.2
v 1 4 1.2
v 1.1 0.4 1.2
v 1.1 0.6 1.2
v 1.1 2 1.2
v 1.1 2.1 1.2
v 1.1 2.4 1.2
v 1.1 2.6 1.2
v 1.1 2.9 1.2
v 1.1 3.1 1.2
v 1.1 3.2 1.2
v 1.1 3.3 1.2
v 1.2 2.1 1.2
v 1.2 2.4 1.2
v 1.2 2.9 1.2
v 1.2 3.1 1.2
v 1.2 3.2 1.2
v 1.3 0.8 1.2
v 1.3 2.1 1.2
v 1.3 2.9 1.2
v 1.3 3.1 1.2
v 1.4 0.2 1.2
v 1.4 0.4 1.2
v 1.5 0.7 1.2
v 1.5 0.8 1.2
v 1.6 0 1.2
v 1.6 0.7 1.2
v 1.6 2.1 1.2
v 1.6 3.7 1.2
v -0.4 0.9 1.7
v -0.4 1 1.7
v 0.4 0.9 1.7
v 0.4 1 1.7
v -0.4 1 1.6
v -0.4 1.1 1.6
v -0.3 1.3 1.6
v -0.3 1.4 1.6
v -0.2 1.3 1.6
v -0.2 1.4 1.6
v 0.2 1.3 1.6
v 0.2 1.4 1.6
v 0.3 1.3 1.6
v 0.3 1.4 1.6
v 0.4 1 1.6
v 0.4 1.1 1.6
v -0.4 1.1 1.5
v -0.4 1.2 1.5
v -0.3 1.2 1.5
v -0.3 1.3 1.5
v -0.2 1.3 1.5
v 0.2 1.3 1.5
v 0.3 1.2 1.5
v 0.3 1.3 1.5
v 0.4 1.1 1.5
v 0.4 1.2 1.5
v -0.2 1.3 1.4
v -0.2 1.9 1.4
v -0.1 1.4 1.4
v -0.1 1.9 1.4
v 0.1 1.4 1.4
v 0.1 1.9 1.4
v 0.2 1.3 1.4
v 0.2 1.9 1.4
v -1.6 0 -2
v -1.6 0.7 -2
v -1.6 2.1 -2
v -1.6 3.7 -2
v -1.5 0.7 -2
v -1.5 0.8 -2
v -1.2 0.8 -2
v -1.2 2.1 -2
v -1 3.7 -2
v -1 4 -2
v -0.9 0 -2
v -0.9 0.2 -2
v 0.9 0 -2
v 0.9 0.2 -2
v 1 3.7 -2
v 1 4 -2
v 1.3 0.8 -2
v 1.3 2.1 -2
v 1.5 0.7 -2
v 1.5 0.8 -2
v 1.6 0 -2
v 1.6 0.7 -2
v 1.6 2.1 -2
v 1.6 3.7 -2
v -1.6 0 1.2
v -0.9 0 1.2
v 0.9 0 1.2
v 1.6 0 1.2
v -1.6 0 -2
v -0.9 0 -2
v 0.9 0 -2
v 1.6 0 -2
v -0.9 0.2 1.2
v 0.9 0.2 1.2
v -0.9 0.2 -2
v 0.9 0.2 -2
v -0.4 0.9 1.8
v 0.4 0.9 1.8
v -0.4 0.9 1.7
v 0.4 0.9 1.7
v -0.4 1 1.7
v 0.4 1 1.7
v -0.4 1 1.6
v 0.4 1 1.6
v -0.4 1.1 1.6
v 0.4 1.1 1.6
v -0.4 1.1 1.5
v 0.4 1.1 1.5
v -0.2 1.3 1.5
v 0.2 1.3 1.5
v -0.2 1.3 1.4
v 0.2 1.3 1.4
v -0.1 1.4 1.4
v 0.1 1.4 1.4
v -0.1 1.4 1.2
v 0.1 1.4 1.2
v -1.1 2.1 1.3
v -0.4 2.1 1.3
v 0.4 2.1 1.3
v 1.1 2.1 1.3
v -1.6 2.1 1.2
v -1.2 2.1 1.2
v -1.1 2.1 1.2
v -0.4 2.1 1.2
v 0.4 2.1 1.2
v 1.1 2.1 1.2
v 1.3 2.1 1.2
v 1.6 2.1 1.2
v -1.6 2.1 -2
v -1.2 2.1 -2
v 1.3 2.1 -2
v 1.6 2.1 -2
v -1.6 0.7 1.2
v -1.5 0.7 1.2
v 1.5 0.7 1.2
v 1.6 0.7 1.2
v -1.6 0.7 -2
v -1.5 0.7 -2
v 1.5 0.7 -2
v 1.6 0.7 -2
v -1.5 0.8 1.2
v -1.2 0.8 1.2
v 1.3 0.8 1.2
v 1.5 0.8 1.2
v -1.5 0.8 -2
v -1.2 0.8 -2
v 1.3 0.8 -2
v 1.5 0.8 -2
v -0.4 1.2 1.8
v 0.4 1.2 1.8
v -0.3 1.2 1.7
v 0.3 1.2 1.7
v -0.4 1.2 1.5
v -0.3 1.2 1.5
v 0.3 1.2 1.5
v 0.4 1.2 1.5
v -0.3 1.3 1.6
v -0.2 1.3 1.6
v 0.2 1.3 1.6
v 0.3 1.3 1.6
v -0.3 1.3 1.5
v -0.2 1.3 1.5
v 0.2 1.3 1.5
v 0.3 1.3 1.5
v -0.3 1.4 1.7
v 0.3 1.4 1.7
v -0.3 1.4 1.6
v -0.2 1.4 1.6
v 0.2 1.4 1.6
v 0.3 1.4 1.6
v -0.2 1.7 1.6
v 0.2 1.7 1.6
v -0.2 1.7 1.5
v 0.2 1.7 1.5
v -0.2 1.9 1.5
v 0.2 1.9 1.5
v -0.2 1.9 1.4
v -0.1 1.9 1.4
v 0.1 1.9 1.4
v 0.2 1.9 1.4
v -0.1 2.1 1.4
v 0.1 2.1 1.4
v -0.1 2.1 1.2
v 0.1 2.1 1.2
v -1.1 2.9 1.3
v -0.4 2.9 1.3
v 0.4 2.9 1.3
v 1.1 2.9 1.3
v -1.1 2.9 1.2
v -0.4 2.9 1.2
v 0.4 2.9 1.2
v 1.1 2.9 1.2
v -1.6 3.7 1.2
v -1 3.7 1.2
v 1 3.7 1.2
v 1.6 3.7 1.2
v -1.6 3.7 -2
v -1 3.7 -2
v 1 3.7 -2
v 1.6 3.7 -2
v -1 4 1.2
v 1 4 1.2
v -1 4 -2
v 1 4 -2

# faces
f 3/2/1 2/2/1 1/2/1
f 4/2/1 2/2/1 3/2/1
f 7/2/1 6/2/1 5/2/1
f 8/2/1 6/2/1 7/2/1
f 11/2/1 10/2/1 9/2/1
f 12/2/1 10/2/1 11/2/1
f 15/2/1 14/2/1 13/2/1
f 16/2/1 14/2/1 15/2/1
f 19/1/1 18/1/1 17/1/1
f 20/1/1 19/1/1 17/1/1
f 21/1/1 19/1/1 20/1/1
f 22/2/1 21/2/1 20/2/1
f 23/2/1 21/2/1 22/2/1
f 26/2/1 25/2/1 24/2/1
f 27/2/1 25/2/1 26/2/1
f 30/2/1 29/2/1 28/2/1
f 32/2/1 31/2/1 30/2/1
f 34/2/1 30/2/1 28/2/1
f 34/2/1 33/2/1 32/2/1
f 34/2/1 32/2/1 30/2/1
f 35/2/1 33/2/1 34/2/1
f 38/2/1 37/2/1 36/2/1
f 39/2/1 37/2/1 38/2/1
f 40/2/1 38/2/1 36/2/1
f 41/2/1 38/2/1 40/2/1
f 45/2/1 43/2/1 42/2/1
f 45/2/1 44/2/1 43/2/1
f 46/2/1 44/2/1 45/2/1
f 47/2/1 44/2/1 46/2/1
f 48/2/1 44/2/1 47/2/1
f 49/2/1 44/2/1 48/2/1
f 52/2/1 51/2/1 50/2/1
f 53/2/1 52/2/1 50/2/1
f 54/2/1 52/2/1 53/2/1
f 55/2/1 54/2/1 53/2/1
f 56/2/1 54/2/1 55/2/1
f 59/1/1 58/1/1 57/1/1
f 60/1/1 59/1/1 57/1/1
f 61/1/1 59/1/1 60/1/1
f 62/2/1 61/2/1 60/2/1
f 63/2/1 61/2/1 62/2/1
f 66/2/1 65/2/1 64/2/1
f 67/2/1 65/2/1 66/2/1
f 68/2/2 69/2/2 70/2/2
f 70/2/2 69/2/2 71/2/2
f 72/1/2 73/1/2 74/1/2
f 72/1/2 74/1/2 75/1/2
f 75/1/2 74/1/2 76/1/2
f 75/2/2 76/2/2 77/2/2
f 77/2/2 76/2/2 78/2/2
f 79/2/2 80/2/2 81/2/2
f 79/2/2 81/2/2 82/2/2
f 82/2/2 81/2/2 83/2/2
f 82/2/2 83/2/2 84/2/2
f 84/2/2 83/2/2 85/2/2
f 86/2/2 87/2/2 89/2/2
f 87/2/2 88/2/2 89/2/2
f 89/2/2 88/2/2 90/2/2
f 90/2/2 88/2/2 91/2/2
f 91/2/2 88/2/2 92/2/2
f 92/2/2 88/2/2 93/2/2
f 94/2/2 95/2/2 96/2/2
f 96/2/2 95/2/2 97/2/2
f 94/2/2 96/2/2 98/2/2
f 98/2/2 96/2/2 99/2/2
f 100/2/2 101/2/2 102/2/2
f 102/2/2 103/2/2 104/2/2
f 100/2/2 102/2/2 106/2/2
f 104/2/2 105/2/2 106/2/2
f 102/2/2 104/2/2 106/2/2
f 106/2/2 105/2/2 107/2/2
f 108/2/2 109/2/2 110/2/2
f 110/2/2 109/2/2 111/2/2
f 112/1/2 113/1/2 114/1/2
f 112/1/2 114/1/2 115/1/2
f 115/1/2 114/1/2 116/1/2
f 115/2/2 116/2/2 117/2/2
f 117/2/2 116/2/2 118/2/2
f 119/2/2 120/2/2 121/2/2
f 121/2/2 120/2/2 122/2/2
f 123/2/2 124/2/2 125/2/2
f 125/2/2 124/2/2 126/2/2
f 127/2/2 128/2/2 129/2/2
f 129/2/2 128/2/2 130/2/2
f 131/2/2 132/2/2 133/2/2
f 133/2/2 132/2/2 134/2/2
f 137/2/3 136/2/3 135/2/3
f 138/2/3 136/2/3 137/2/3
f 141/2/3 140/2/3 139/2/3
f 142/2/3 140/2/3 141/2/3
f 145/2/3 144/2/3 143/2/3
f 146/2/3 144/2/3 145/2/3
f 149/2/3 148/2/3 147/2/3
f 150/2/3 148/2/3 149/2/3
f 153/2/3 152/2/3 151/2/3
f 154/2/3 152/2/3 153/2/3
f 158/1/3 156/1/3 155/1/3
f 159/2/3 157/2/3 156/2/3
f 159/1/3 156/1/3 158/1/3
f 160/1/3 158/1/3 155/1/3
f 160/4/3 159/4/3 158/4/3
f 161/2/3 157/2/3 159/2/3
f 161/4/3 159/4/3 160/4/3
f 162/1/3 160/1/3 155/1/3
f 162/1/3 161/1/3 160/1/3
f 163/2/3 157/2/3 161/2/3
f 163/1/3 161/1/3 162/1/3
f 164/2/3 157/2/3 163/2/3
f 168/1/3 166/1/3 165/1/3
f 169/2/3 167/2/3 166/2/3
f 169/1/3 166/1/3 168/1/3
f 170/1/3 168/1/3 165/1/3
f 170/4/3 169/4/3 168/4/3
f 171/2/3 167/2/3 169/2/3
f 171/4/3 169/4/3 170/4/3
f 172/1/3 170/1/3 165/1/3
f 172/1/3 171/1/3 170/1/3
f 173/2/3 167/2/3 171/2/3
f 173/1/3 171/1/3 172/1/3
f 174/2/3 167/2/3 173/2/3
f 179/2/3 176/2/3 175/2/3
f 181/2/3 179/2/3 175/2/3
f 181/2/3 180/2/3 179/2/3
f 182/2/3 180/2/3 181/2/3
f 183/2/3 178/2/3 177/2/3
f 184/2/3 178/2/3 183/2/3
f 185/2/3 178/2/3 184/2/3
f 186/2/3 180/2/3 182/2/3
f 187/2/3 183/2/3 177/2/3
f 188/2/3 183/2/3 187/2/3
f 189/2/3 183/2/3 188/2/3
f 190/3/3 184/3/3 183/3/3
f 190/2/3 183/2/3 189/2/3
f 191/5/3 185/5/3 184/5/3
f 191/3/3 184/3/3 190/3/3
f 192/2/3 178/2/3 185/2/3
f 192/5/3 185/5/3 191/5/3
f 193/5/3 182/5/3 181/5/3
f 193/2/3 186/2/3 182/2/3
f 193/2/3 187/2/3 186/2/3
f 194/2/3 187/2/3 193/2/3
f 195/2/3 187/2/3 194/2/3
f 196/3/3 188/3/3 187/3/3
f 196/2/3 187/2/3 195/2/3
f 197/2/3 189/2/3 188/2/3
f 197/3/3 188/3/3 196/3/3
f 198/2/3 189/2/3 197/2/3
f 199/3/3 190/3/3 189/3/3
f 199/2/3 189/2/3 198/2/3
f 200/5/3 191/5/3 190/5/3
f 200/3/3 190/3/3 199/3/3
f 201/2/3 192/2/3 191/2/3
f 201/5/3 191/5/3 200/5/3
f 202/2/3 181/2/3 175/2/3
f 202/5/3 194/5/3 193/5/3
f 202/5/3 193/5/3 181/5/3
f 203/5/3 194/5/3 202/5/3
f 204/5/3 194/5/3 203/5/3
f 205/2/3 192/2/3 201/2/3
f 205/2/3 201/2/3 200/2/3
f 205/2/3 178/2/3 192/2/3
f 207/2/3 203/2/3 202/2/3
f 207/2/3 202/2/3 175/2/3
f 208/2/3 203/2/3 207/2/3
f 209/3/3 196/3/3 195/3/3
f 209/2/3 195/2/3 194/2/3
f 210/3/3 196/3/3 209/3/3
f 213/5/3 200/5/3 199/5/3
f 214/2/3 206/2/3 205/2/3
f 214/2/3 205/2/3 200/2/3
f 214/5/3 200/5/3 213/5/3
f 215/2/3 206/2/3 214/2/3
f 216/2/3 209/2/3 194/2/3
f 216/2/3 210/2/3 209/2/3
f 217/2/3 210/2/3 216/2/3
f 218/3/3 211/3/3 210/3/3
f 218/2/3 210/2/3 217/2/3
f 219/2/3 213/2/3 212/2/3
f 219/3/3 211/3/3 218/3/3
f 219/2/3 212/2/3 211/2/3
f 220/3/3 214/3/3 213/3/3
f 220/2/3 213/2/3 219/2/3
f 221/5/3 215/5/3 214/5/3
f 221/3/3 214/3/3 220/3/3
f 222/2/3 206/2/3 215/2/3
f 222/5/3 215/5/3 221/5/3
f 223/2/3 206/2/3 222/2/3
f 224/3/3 217/3/3 216/3/3
f 225/2/3 218/2/3 217/2/3
f 225/3/3 217/3/3 224/3/3
f 225/2/3 221/2/3 220/2/3
f 225/2/3 220/2/3 219/2/3
f 225/2/3 219/2/3 218/2/3
f 226/2/3 221/2/3 225/2/3
f 227/2/3 221/2/3 226/2/3
f 228/2/3 221/2/3 227/2/3
f 229/3/3 222/3/3 221/3/3
f 229/2/3 221/2/3 228/2/3
f 230/5/3 223/5/3 222/5/3
f 230/3/3 222/3/3 229/3/3
f 231/2/3 206/2/3 223/2/3
f 231/5/3 223/5/3 230/5/3
f 232/3/3 224/3/3 216/3/3
f 232/5/3 225/5/3 224/5/3
f 232/5/3 226/5/3 225/5/3
f 233/2/3 227/2/3 226/2/3
f 233/5/3 226/5/3 232/5/3
f 234/3/3 228/3/3 227/3/3
f 234/2/3 227/2/3 233/2/3
f 235/2/3 229/2/3 228/2/3
f 235/3/3 228/3/3 234/3/3
f 235/2/3 230/2/3 229/2/3
f 235/2/3 231/2/3 230/2/3
f 236/3/3 232/3/3 216/3/3
f 239/2/3 231/2/3 235/2/3
f 240/3/3 236/3/3 216/3/3
f 240/5/3 237/5/3 236/5/3
f 241/5/3 237/5/3 240/5/3
f 242/2/3 238/2/3 237/2/3
f 242/5/3 237/5/3 241/5/3
f 243/3/3 239/3/3 238/3/3
f 243/2/3 238/2/3 242/2/3
f 244/2/3 231/2/3 239/2/3
f 244/3/3 239/3/3 243/3/3
f 245/2/3 231/2/3 244/2/3
f 246/2/3 231/2/3 245/2/3
f 247/2/3 216/2/3 194/2/3
f 247/3/3 241/3/3 240/3/3
f 247/3/3 240/3/3 216/3/3
f 248/2/3 242/2/3 241/2/3
f 248/3/3 241/3/3 247/3/3
f 248/2/3 243/2/3 242/2/3
f 248/2/3 244/2/3 243/2/3
f 248/2/3 245/2/3 244/2/3
f 249/2/3 245/2/3 248/2/3
f 250/2/3 245/2/3 249/2/3
f 251/5/3 246/5/3 245/5/3
f 251/2/3 245/2/3 250/2/3
f 252/2/3 231/2/3 246/2/3
f 252/5/3 246/5/3 251/5/3
f 253/2/3 206/2/3 231/2/3
f 253/2/3 231/2/3 252/2/3
f 254/2/3 248/2/3 247/2/3
f 254/2/3 249/2/3 248/2/3
f 255/3/3 250/3/3 249/3/3
f 255/2/3 249/2/3 254/2/3
f 256/2/3 251/2/3 250/2/3
f 256/3/3 250/3/3 255/3/3
f 257/2/3 251/2/3 256/2/3
f 258/3/3 252/3/3 251/3/3
f 258/2/3 251/2/3 257/2/3
f 259/5/3 253/5/3 252/5/3
f 259/3/3 252/3/3 258/3/3
f 260/2/3 206/2/3 253/2/3
f 260/5/3 253/5/3 259/5/3
f 261/2/3 206/2/3 260/2/3
f 263/2/3 203/2/3 208/2/3
f 264/2/3 203/2/3 263/2/3
f 264/2/3 263/2/3 262/2/3
f 265/3/3 204/3/3 203/3/3
f 265/2/3 203/2/3 264/2/3
f 266/5/3 194/5/3 204/5/3
f 266/3/3 204/3/3 265/3/3
f 267/2/3 206/2/3 261/2/3
f 268/2/3 206/2/3 267/2/3
f 269/5/3 265/5/3 264/5/3
f 269/5/3 194/5/3 266/5/3
f 269/5/3 266/5/3 265/5/3
f 270/2/3 254/2/3 247/2/3
f 270/5/3 194/5/3 269/5/3
f 270/2/3 247/2/3 194/2/3
f 271/3/3 255/3/3 254/3/3
f 271/2/3 254/2/3 270/2/3
f 272/3/3 255/3/3 271/3/3
f 275/2/3 259/2/3 258/2/3
f 276/3/3 260/3/3 259/3/3
f 276/2/3 259/2/3 275/2/3
f 277/5/3 261/5/3 260/5/3
f 277/3/3 260/3/3 276/3/3
f 278/2/3 267/2/3 261/2/3
f 278/5/3 261/5/3 277/5/3
f 279/2/3 270/2/3 269/2/3
f 279/2/3 271/2/3 270/2/3
f 279/2/3 272/2/3 271/2/3
f 279/3/3 273/3/3 272/3/3
f 280/2/3 275/2/3 274/2/3
f 280/3/3 273/3/3 279/3/3
f 280/2/3 274/2/3 273/2/3
f 281/3/3 276/3/3 275/3/3
f 281/2/3 275/2/3 280/2/3
f 282/5/3 277/5/3 276/5/3
f 282/3/3 276/3/3 281/3/3
f 283/2/3 278/2/3 277/2/3
f 283/5/3 277/5/3 282/5/3
f 284/2/3 281/2/3 280/2/3
f 284/2/3 279/2/3 269/2/3
f 284/2/3 280/2/3 279/2/3
f 285/2/3 281/2/3 284/2/3
f 286/5/3 282/5/3 281/5/3
f 286/2/3 281/2/3 285/2/3
f 287/2/3 283/2/3 282/2/3
f 287/5/3 282/5/3 286/5/3
f 288/2/3 264/2/3 262/2/3
f 288/5/3 269/5/3 264/5/3
f 289/2/3 284/2/3 269/2/3
f 289/5/3 269/5/3 288/5/3
f 290/2/3 289/2/3 288/2/3
f 290/2/3 284/2/3 289/2/3
f 291/2/3 284/2/3 290/2/3
f 292/2/3 288/2/3 262/2/3
f 292/2/3 290/2/3 288/2/3
f 293/2/3 290/2/3 292/2/3
f 294/2/3 286/2/3 285/2/3
f 294/2/3 287/2/3 286/2/3
f 295/2/3 283/2/3 287/2/3
f 295/2/3 287/2/3 294/2/3
f 295/2/3 278/2/3 283/2/3
f 295/2/3 267/2/3 278/2/3
f 296/2/4 297/2/4 298/2/4
f 298/2/4 297/2/4 299/2/4
f 302/2/4 303/2/4 304/2/4
f 304/2/4 303/2/4 305/2/4
f 306/2/4 307/2/4 308/2/4
f 308/2/4 307/2/4 309/2/4
f 300/2/4 301/2/4 310/2/4
f 310/2/4 301/2/4 311/2/4
f 312/2/4 313/2/4 314/2/4
f 314/2/4 315/2/4 316/2/4
f 314/2/4 316/2/4 317/2/4
f 312/2/4 314/2/4 318/2/4
f 314/2/4 317/2/4 318/2/4
f 318/2/4 317/2/4 319/2/4
f 312/2/4 318/2/4 320/2/4
f 320/2/4 318/2/4 321/2/4
f 322/2/4 323/2/4 324/2/4
f 324/2/4 323/2/4 325/2/4
f 322/2/4 324/2/4 326/2/4
f 322/2/4 326/2/4 328/2/4
f 326/2/4 327/2/4 328/2/4
f 328/2/4 327/2/4 329/2/4
f 330/2/4 331/2/4 334/2/4
f 334/2/4 335/2/4 336/2/4
f 332/2/4 333/2/4 337/2/4
f 337/2/4 333/2/4 338/2/4
f 336/2/4 337/2/4 338/2/4
f 334/2/4 336/2/4 340/2/4
f 338/2/4 339/2/4 340/2/4
f 336/2/4 338/2/4 340/2/4
f 330/2/4 334/2/4 340/2/4
f 340/2/4 339/2/4 341/2/4
f 341/2/4 339/2/4 343/2/4
f 343/2/4 339/2/4 344/2/4
f 342/2/4 343/2/4 344/2/4
f 344/2/4 339/2/4 345/2/4
f 342/2/4 344/2/4 346/2/4
f 346/2/4 344/2/4 347/2/4
f 342/2/4 346/2/4 348/2/4
f 348/2/4 346/2/4 349/2/4
f 342/2/4 348/2/4 350/2/4
f 350/2/4 348/2/4 351/2/4
f 347/2/4 344/2/4 352/2/4
f 352/2/4 344/2/4 353/2/4
f 358/2/5 355/2/5 354/2/5
f 359/2/5 355/2/5 358/2/5
f 360/2/5 357/2/5 356/2/5
f 361/2/5 357/2/5 360/2/5
f 364/2/5 363/2/5 362/2/5
f 365/2/5 363/2/5 364/2/5
f 368/2/5 367/2/5 366/2/5
f 369/2/5 367/2/5 368/2/5
f 372/2/5 371/2/5 370/2/5
f 373/2/5 371/2/5 372/2/5
f 376/2/5 375/2/5 374/2/5
f 377/2/5 375/2/5 376/2/5
f 380/2/5 379/2/5 378/2/5
f 381/2/5 379/2/5 380/2/5
f 384/2/5 383/2/5 382/2/5
f 385/2/5 383/2/5 384/2/5
f 392/1/5 387/1/5 386/1/5
f 393/1/5 387/1/5 392/1/5
f 394/1/5 389/1/5 388/1/5
f 395/1/5 389/1/5 394/1/5
f 398/2/5 391/2/5 390/2/5
f 399/2/5 391/2/5 398/2/5
f 400/2/5 397/2/5 396/2/5
f 401/2/5 397/2/5 400/2/5
f 402/2/6 403/2/6 406/2/6
f 406/2/6 403/2/6 407/2/6
f 404/2/6 405/2/6 408/2/6
f 408/2/6 405/2/6 409/2/6
f 410/2/6 411/2/6 414/2/6
f 414/2/6 411/2/6 415/2/6
f 412/2/6 413/2/6 416/2/6
f 416/2/6 413/2/6 417/2/6
f 418/2/6 419/2/6 420/2/6
f 420/2/6 419/2/6 421/2/6
f 418/2/6 420/2/6 422/2/6
f 422/2/6 420/2/6 423/2/6
f 421/2/6 419/2/6 424/2/6
f 424/2/6 419/2/6 425/2/6
f 426/2/6 427/2/6 430/2/6
f 430/2/6 427/2/6 431/2/6
f 428/2/6 429/2/6 432/2/6
f 432/2/6 429/2/6 433/2/6
f 434/2/6 435/2/6 436/2/6
f 436/2/6 435/2/6 437/2/6
f 437/2/6 435/2/6 438/2/6
f 438/2/6 435/2/6 439/2/6
f 440/2/6 441/2/6 442/2/6
f 442/2/6 441/2/6 443/2/6
f 444/2/6 445/2/6 446/2/6
f 446/2/6 445/2/6 447/2/6
f 447/2/6 445/2/6 448/2/6
f 448/2/6 445/2/6 449/2/6
f 450/2/6 451/2/6 452/2/6
f 452/2/6 451/2/6 453/2/6
f 454/2/6 455/2/6 458/2/6
f 458/2/6 455/2/6 459/2/6
f 456/2/6 457/2/6 460/2/6
f 460/2/6 457/2/6 461/2/6
f 462/2/6 463/2/6 466/2/6
f 466/2/6 463/2/6 467/2/6
f 464/2/6 465/2/6 468/2/6
f 468/2/6 465/2/6 469/2/6
f 470/2/6 471/2/6 472/2/6
f 472/2/6 471/2/6 473/2/6
